<svg width="24" height="24" viewBox="0 0 24 24" fill="none" xmlns="http://www.w3.org/2000/svg">
<path d="M4.82788 3.61778C5.03066 6.06568 5.42173 6.74515 6.61188 6.77593C7.40561 6.79645 8.0434 6.43552 8.28891 5.71245C8.50085 5.08836 8.49184 4.39079 8.58797 3.66983C10.8727 3.66983 13.1917 3.66983 15.5907 3.66983C15.5907 4.12884 15.5762 4.57488 15.5938 5.01971C15.6298 5.93441 16.3013 6.66864 17.1753 6.7711C18.0826 6.87748 18.9389 6.29111 19.1294 5.35393C19.2379 4.82008 19.2208 4.26133 19.2648 3.65324C20.1964 3.65324 21.1377 3.56813 22.0564 3.67466C23.2254 3.81031 23.9874 4.74689 23.9901 5.93214C24.0026 11.1853 24.0043 16.4385 23.9904 21.6918C23.9867 23.0667 23.0137 23.9946 21.6191 23.9958C15.2142 24.0015 8.80906 24.0014 2.40396 23.9961C0.957781 23.9949 0.0111601 23.0776 0.00810844 21.645C-0.00303008 16.417 -0.00241975 11.1887 0.00826102 5.96066C0.0108549 4.70917 0.837089 3.799 2.05958 3.63603C2.25977 3.60933 2.46545 3.61883 2.66869 3.61838C3.3753 3.61657 4.08206 3.61778 4.82788 3.61778ZM22.1316 8.1937C15.3597 8.1937 8.66243 8.1937 1.92546 8.1937C1.92546 12.7714 1.92546 17.3068 1.92546 21.8771C8.6815 21.8771 15.3941 21.8771 22.1316 21.8771C22.1316 17.2964 22.1316 12.7779 22.1316 8.1937Z" fill="#999999"/>
<path d="M5.46675 3.01392C5.46675 2.33596 5.45317 1.65771 5.47041 0.980205C5.48979 0.219412 5.77558 -0.00375595 6.66696 1.63336e-05C7.49411 0.00363772 7.81286 0.244762 7.82125 0.946406C7.83773 2.32721 7.82964 3.70847 7.8243 5.08942C7.8214 5.83196 7.33512 5.99507 6.70236 5.99809C6.06854 6.00111 5.4965 5.92732 5.47453 5.12292C5.45546 4.42037 5.47057 3.71692 5.47057 3.01392C5.46934 3.01392 5.46812 3.01392 5.46675 3.01392Z" fill="#999999"/>
<path d="M16.1775 2.95189C16.1775 2.27378 16.1624 1.59538 16.1818 0.917874C16.2016 0.224378 16.5064 -0.000902631 17.3574 2.71592e-06C18.2055 0.000908063 18.5108 0.223473 18.5202 0.931002C18.5388 2.31196 18.5396 3.69352 18.5198 5.07447C18.5097 5.77612 18.199 5.99627 17.3426 5.99491C16.493 5.99355 16.1999 5.77069 16.1813 5.0612C16.163 4.35865 16.1775 3.65504 16.1775 2.95189Z" fill="#999999"/>
<path d="M3.29761 20.0274C3.29761 18.6432 3.29761 17.2804 3.29761 15.8786C4.79047 15.8786 6.2487 15.8786 7.75912 15.8786C7.75912 17.2464 7.75912 18.6094 7.75912 20.0274C6.2896 20.0274 4.81428 20.0274 3.29761 20.0274Z" fill="#999999"/>
<path d="M20.5902 15.881C20.5902 17.2992 20.5902 18.6482 20.5902 20.0393C19.0972 20.0393 17.6362 20.0393 16.1262 20.0393C16.1262 18.6551 16.1262 17.2888 16.1262 15.881C17.6122 15.881 19.073 15.881 20.5902 15.881Z" fill="#999999"/>
<path d="M3.32153 9.62323C4.81303 9.62323 6.27522 9.62323 7.77435 9.62323C7.77435 11.0006 7.77435 12.3471 7.77435 13.745C6.30544 13.745 4.84598 13.745 3.32153 13.745C3.32153 12.4022 3.32153 11.0636 3.32153 9.62323Z" fill="#999999"/>
<path d="M14.3564 15.8898C14.3564 17.3081 14.3564 18.6547 14.3564 20.0411C12.8829 20.0411 11.4486 20.0411 9.9541 20.0411C9.9541 18.668 9.9541 17.3041 9.9541 15.8898C11.3991 15.8898 12.8544 15.8898 14.3564 15.8898Z" fill="#999999"/>
<path d="M16.1404 9.62564C17.6284 9.62564 19.0852 9.62564 20.5825 9.62564C20.5825 11.0037 20.5825 12.3447 20.5825 13.7408C19.1116 13.7408 17.6577 13.7408 16.1404 13.7408C16.1404 12.3788 16.1404 11.0229 16.1404 9.62564Z" fill="#999999"/>
<path d="M9.92114 13.7335C9.92114 12.3449 9.92114 11.0185 9.92114 9.63864C11.4021 9.63864 12.857 9.63864 14.3541 9.63864C14.3541 10.9983 14.3541 12.3434 14.3541 13.7335C12.8748 13.7335 11.4033 13.7335 9.92114 13.7335Z" fill="#999999"/>
</svg>
