<svg width="28" height="22" viewBox="0 0 28 22" fill="none" xmlns="http://www.w3.org/2000/svg">
<path d="M25.1316 8.49807L24.4876 6.88818L23.3458 4.03333C22.3655 1.58297 20.0274 0 17.388 0H10.112C7.47313 0 5.13448 1.58297 4.15422 4.03333L3.0124 6.88818L2.36844 8.49807C0.986562 9.02344 0 10.3503 0 11.9167V14.6667C0 15.5902 0.352917 16.4238 0.916667 17.0689V20.1667C0.916667 21.179 1.73766 22 2.75 22H4.58333C5.59568 22 6.41667 21.179 6.41667 20.1667V18.3333H21.0833V20.1667C21.0833 21.179 21.9043 22 22.9167 22H24.75C25.7623 22 26.5833 21.179 26.5833 20.1667V17.0689C27.1471 16.4244 27.5 15.5908 27.5 14.6667V11.9167C27.5 10.3503 26.5134 9.02344 25.1316 8.49807ZM7.55849 5.39516C7.97615 4.3513 8.98734 3.66667 10.112 3.66667H17.388C18.5127 3.66667 19.5239 4.3513 19.9415 5.39516L21.0833 8.25H6.41667L7.55849 5.39516ZM4.58333 14.6552C3.48333 14.6552 2.75 13.9242 2.75 12.8276C2.75 11.731 3.48333 11 4.58333 11C5.68333 11 7.33333 12.6448 7.33333 13.7414C7.33333 14.838 5.68333 14.6552 4.58333 14.6552ZM22.9167 14.6552C21.8167 14.6552 20.1667 14.838 20.1667 13.7414C20.1667 12.6448 21.8167 11 22.9167 11C24.0167 11 24.75 11.731 24.75 12.8276C24.75 13.9242 24.0167 14.6552 22.9167 14.6552Z" fill="#999999"/>
</svg>
