<svg width="29" height="23" viewBox="0 0 29 23" fill="none" xmlns="http://www.w3.org/2000/svg">
<path d="M14.0205 5.80809L4.93265 13.293V21.3713C4.93265 21.5805 5.01574 21.7811 5.16364 21.929C5.31154 22.0769 5.51214 22.16 5.72131 22.16L11.2449 22.1457C11.4534 22.1446 11.6529 22.0611 11.8 21.9133C11.947 21.7655 12.0296 21.5655 12.0296 21.357V16.6393C12.0296 16.4302 12.1127 16.2296 12.2606 16.0817C12.4085 15.9338 12.6091 15.8507 12.8183 15.8507H15.9729C16.1821 15.8507 16.3827 15.9338 16.5306 16.0817C16.6785 16.2296 16.7616 16.4302 16.7616 16.6393V21.3536C16.7612 21.4573 16.7814 21.5601 16.8209 21.6561C16.8604 21.7521 16.9184 21.8393 16.9917 21.9128C17.0649 21.9863 17.152 22.0446 17.2478 22.0844C17.3437 22.1242 17.4464 22.1447 17.5502 22.1447L23.0718 22.16C23.281 22.16 23.4816 22.0769 23.6295 21.929C23.7774 21.7811 23.8605 21.5805 23.8605 21.3713V13.2875L14.7746 5.80809C14.6678 5.72199 14.5347 5.67504 14.3975 5.67504C14.2603 5.67504 14.1273 5.72199 14.0205 5.80809ZM28.3755 10.8954L24.2548 7.49878V0.671451C24.2548 0.514577 24.1925 0.364128 24.0816 0.253201C23.9706 0.142274 23.8202 0.0799561 23.6633 0.0799561H20.903C20.7461 0.0799561 20.5957 0.142274 20.4848 0.253201C20.3738 0.364128 20.3115 0.514577 20.3115 0.671451V4.25049L15.8985 0.619695C15.475 0.271196 14.9435 0.0806527 14.3951 0.0806527C13.8466 0.0806527 13.3152 0.271196 12.8917 0.619695L0.414614 10.8954C0.354719 10.9449 0.305165 11.0058 0.268784 11.0744C0.232403 11.1431 0.209908 11.2182 0.202584 11.2956C0.19526 11.373 0.203251 11.451 0.2261 11.5253C0.248949 11.5996 0.286207 11.6686 0.335748 11.7285L1.59267 13.2565C1.64208 13.3166 1.70285 13.3663 1.7715 13.4029C1.84015 13.4394 1.91534 13.4621 1.99277 13.4695C2.07019 13.477 2.14832 13.4691 2.22269 13.4464C2.29707 13.4236 2.36622 13.3864 2.42619 13.3368L14.0205 3.78715C14.1273 3.70105 14.2603 3.6541 14.3975 3.6541C14.5347 3.6541 14.6678 3.70105 14.7746 3.78715L26.3694 13.3368C26.4293 13.3864 26.4983 13.4236 26.5726 13.4465C26.6468 13.4693 26.7249 13.4773 26.8022 13.47C26.8796 13.4627 26.9548 13.4402 27.0234 13.4038C27.0921 13.3674 27.1529 13.3179 27.2024 13.258L28.4593 11.7299C28.5088 11.6697 28.5459 11.6003 28.5685 11.5257C28.5911 11.4511 28.5987 11.3728 28.5909 11.2953C28.5831 11.2177 28.5601 11.1425 28.5231 11.0739C28.4862 11.0052 28.436 10.9446 28.3755 10.8954Z" fill="#1E7BE2"/>
</svg>
