<svg width="29" height="23" viewBox="0 0 29 23" fill="none" xmlns="http://www.w3.org/2000/svg">
<path d="M14.0207 5.80809L4.93289 13.293V21.3713C4.93289 21.5805 5.01598 21.7811 5.16388 21.929C5.31179 22.0769 5.51238 22.16 5.72155 22.16L11.2451 22.1457C11.4536 22.1446 11.6532 22.0611 11.8002 21.9133C11.9473 21.7655 12.0298 21.5655 12.0298 21.357V16.6393C12.0298 16.4302 12.1129 16.2296 12.2608 16.0817C12.4087 15.9338 12.6093 15.8507 12.8185 15.8507H15.9731C16.1823 15.8507 16.3829 15.9338 16.5308 16.0817C16.6787 16.2296 16.7618 16.4302 16.7618 16.6393V21.3536C16.7615 21.4573 16.7816 21.5601 16.8211 21.6561C16.8606 21.7521 16.9187 21.8393 16.9919 21.9128C17.0652 21.9863 17.1522 22.0446 17.2481 22.0844C17.3439 22.1242 17.4467 22.1447 17.5505 22.1447L23.0721 22.16C23.2812 22.16 23.4818 22.0769 23.6297 21.929C23.7776 21.7811 23.8607 21.5805 23.8607 21.3713V13.2875L14.7749 5.80809C14.6681 5.72199 14.535 5.67504 14.3978 5.67504C14.2606 5.67504 14.1275 5.72199 14.0207 5.80809ZM28.3758 10.8954L24.255 7.49878V0.671451C24.255 0.514577 24.1927 0.364128 24.0818 0.253201C23.9709 0.142274 23.8204 0.0799561 23.6636 0.0799561H20.9032C20.7464 0.0799561 20.5959 0.142274 20.485 0.253201C20.3741 0.364128 20.3118 0.514577 20.3118 0.671451V4.25049L15.8987 0.619695C15.4752 0.271196 14.9438 0.0806527 14.3953 0.0806527C13.8469 0.0806527 13.3154 0.271196 12.8919 0.619695L0.414858 10.8954C0.354963 10.9449 0.305409 11.0058 0.269028 11.0744C0.232648 11.1431 0.210153 11.2182 0.202829 11.2956C0.195505 11.373 0.203495 11.451 0.226344 11.5253C0.249193 11.5996 0.286452 11.6686 0.335992 11.7285L1.59292 13.2565C1.64232 13.3166 1.70309 13.3663 1.77175 13.4029C1.8404 13.4394 1.91559 13.4621 1.99301 13.4695C2.07043 13.477 2.14857 13.4691 2.22294 13.4464C2.29731 13.4236 2.36646 13.3864 2.42643 13.3368L14.0207 3.78715C14.1275 3.70105 14.2606 3.6541 14.3978 3.6541C14.535 3.6541 14.6681 3.70105 14.7749 3.78715L26.3696 13.3368C26.4295 13.3864 26.4985 13.4236 26.5728 13.4465C26.6471 13.4693 26.7251 13.4773 26.8025 13.47C26.8799 13.4627 26.955 13.4402 27.0237 13.4038C27.0923 13.3674 27.1532 13.3179 27.2027 13.258L28.4596 11.7299C28.5091 11.6697 28.5462 11.6003 28.5688 11.5257C28.5913 11.4511 28.599 11.3728 28.5912 11.2953C28.5834 11.2177 28.5603 11.1425 28.5234 11.0739C28.4864 11.0052 28.4363 10.9446 28.3758 10.8954Z" fill="#999999"/>
</svg>
