<svg width="22" height="23" viewBox="0 0 22 23" fill="none" xmlns="http://www.w3.org/2000/svg">
<path d="M21.5873 13.7731L19.691 12.678C19.8824 11.6452 19.8824 10.5858 19.691 9.55299L21.5873 8.4579C21.8055 8.33326 21.9034 8.07506 21.8322 7.83468C21.3381 6.24991 20.4967 4.8165 19.3972 3.62347C19.228 3.44095 18.952 3.39644 18.7383 3.52108L16.8419 4.61617C16.0451 3.93063 15.1281 3.40089 14.1354 3.05366V0.86793C14.1354 0.618641 13.9618 0.400513 13.7169 0.347094C12.0832 -0.0179373 10.4094 -0.000130974 8.85578 0.347094C8.61094 0.400513 8.43733 0.618641 8.43733 0.86793V3.05812C7.44908 3.40979 6.53205 3.93953 5.73076 4.62063L3.83883 3.52553C3.6207 3.40089 3.34915 3.44095 3.17999 3.62792C2.08045 4.8165 1.2391 6.24991 0.744971 7.83913C0.669294 8.07952 0.771681 8.33771 0.989809 8.46235L2.88619 9.55745C2.69477 10.5902 2.69477 11.6497 2.88619 12.6825L0.989809 13.7776C0.771681 13.9022 0.673745 14.1604 0.744971 14.4008C1.2391 15.9855 2.08045 17.419 3.17999 18.612C3.34915 18.7945 3.62515 18.839 3.83883 18.7144L5.73521 17.6193C6.53205 18.3048 7.44908 18.8346 8.44178 19.1818V21.372C8.44178 21.6213 8.61539 21.8394 8.86023 21.8928C10.494 22.2578 12.1678 22.24 13.7214 21.8928C13.9662 21.8394 14.1398 21.6213 14.1398 21.372V19.1818C15.1281 18.8301 16.0451 18.3004 16.8464 17.6193L18.7428 18.7144C18.9609 18.839 19.2325 18.799 19.4016 18.612C20.5012 17.4234 21.3425 15.99 21.8366 14.4008C21.9034 14.1559 21.8055 13.8978 21.5873 13.7731ZM11.2864 14.6768C9.3232 14.6768 7.72507 13.0787 7.72507 11.1155C7.72507 9.15235 9.3232 7.55423 11.2864 7.55423C13.2495 7.55423 14.8476 9.15235 14.8476 11.1155C14.8476 13.0787 13.2495 14.6768 11.2864 14.6768Z" fill="#999999"/>
</svg>
