<svg width="33" height="21" viewBox="0 0 33 21" fill="none" xmlns="http://www.w3.org/2000/svg">
<path d="M30.362 14.9741C30.1989 15.2953 30.06 15.6282 29.8696 15.9282C29.585 16.3753 29.1323 16.3714 28.7039 16.2224C28.2765 16.0733 28.0074 15.7385 28.0172 15.2663C28.0249 14.8657 28.0793 14.4641 28.1328 14.0654C28.1687 13.7944 28.0978 13.6241 27.8394 13.4838C27.0361 13.0493 26.2483 12.5848 25.3799 12.0894C25.3799 13.0938 25.3721 14.0093 25.3906 14.9247C25.3925 15.0302 25.5149 15.1734 25.6198 15.2286C25.9481 15.4008 26.2978 15.5314 26.633 15.6911C27.2459 15.9833 27.4819 16.5446 27.2469 17.1252C27.0186 17.6855 26.4154 17.9352 25.7976 17.7252C25.6781 17.6845 25.5586 17.6449 25.4187 17.5974C25.3838 18.0426 25.3915 18.4655 25.31 18.8699C25.1846 19.4951 24.6242 19.855 23.9695 19.7931C23.3303 19.7331 22.8942 19.2609 22.8747 18.5951C22.865 18.2729 22.8728 17.9506 22.8728 17.5733C22.6785 17.6371 22.5211 17.6894 22.3628 17.7416C21.8014 17.9255 21.2117 17.6778 20.9825 17.163C20.7416 16.6201 20.9592 15.9979 21.5061 15.7221C21.8227 15.5624 22.153 15.425 22.4852 15.3002C22.7552 15.1986 22.8912 15.0611 22.8815 14.7399C22.8553 13.8883 22.8728 13.0358 22.8728 12.1078C22.7115 12.1823 22.5872 12.2287 22.4735 12.2936C21.8412 12.6526 21.2166 13.0251 20.5784 13.3725C20.3462 13.4993 20.2481 13.6261 20.3142 13.9048C20.3948 14.2483 20.4317 14.6054 20.458 14.9586C20.5056 15.605 20.1277 16.0985 19.5458 16.1846C18.929 16.2756 18.4278 15.9088 18.285 15.2605C18.2539 15.1192 18.2238 14.9779 18.1791 14.7728C17.8566 14.9499 17.5555 15.1182 17.2515 15.2818C16.5666 15.6514 15.8313 15.4734 15.4816 14.855C15.1164 14.2067 15.3107 13.5303 15.9877 13.1161C16.2354 12.9642 16.4899 12.8229 16.7949 12.6458C16.6696 12.5384 16.5686 12.4523 16.4685 12.3642C15.9994 11.95 15.9197 11.3181 16.2772 10.8449C16.6376 10.3659 17.2553 10.2566 17.7877 10.5982C18.1811 10.8508 18.558 11.1294 18.9601 11.4081C19.813 10.9204 20.6619 10.4337 21.5809 9.90823C20.7125 9.40794 19.9091 8.93474 19.0912 8.48767C19.0067 8.44122 18.8173 8.51186 18.7153 8.58347C18.4385 8.77894 18.1888 9.01215 17.9168 9.2144C17.3583 9.6305 16.7094 9.5676 16.3189 9.07021C15.9236 8.56702 16.01 7.95157 16.5414 7.48612C16.6376 7.40193 16.7357 7.31871 16.8629 7.21033C16.5482 7.0255 16.2529 6.86196 15.9663 6.68391C15.3009 6.26974 15.1144 5.56236 15.5001 4.9353C15.8634 4.34405 16.587 4.1747 17.2417 4.52887C17.4807 4.65854 17.7177 4.79402 17.9984 4.95175C18.013 4.80466 18.0227 4.70112 18.0334 4.59758C18.1053 3.94923 18.5813 3.5341 19.2127 3.56796C19.8295 3.60183 20.2705 4.08084 20.2549 4.73402C20.2452 5.12013 20.1792 5.5043 20.1675 5.89041C20.1636 6.0162 20.2103 6.20974 20.2987 6.26393C21.1253 6.75842 21.9665 7.22774 22.8728 7.74449C22.8728 6.69262 22.8806 5.7288 22.8621 4.76693C22.8602 4.66532 22.7251 4.525 22.6183 4.47468C22.3123 4.33147 21.9879 4.22793 21.6722 4.10309C20.9825 3.83021 20.6843 3.26218 20.9116 2.66028C21.1457 2.04096 21.7217 1.80194 22.4221 2.03419C22.5425 2.07386 22.6639 2.11063 22.8757 2.1774C22.8757 1.8242 22.867 1.51357 22.8776 1.20295C22.898 0.557501 23.3594 0.0639819 23.984 0.00592092C24.6164 -0.0531078 25.1827 0.333966 25.3167 0.955219C25.3838 1.26585 25.3847 1.59002 25.4187 1.93742C25.9588 1.75453 26.4727 1.57647 26.9389 2.08547C27.446 2.63802 27.3654 3.42862 26.7116 3.79731C26.3746 3.98794 26.0113 4.13116 25.6713 4.31598C25.5576 4.37792 25.3993 4.50081 25.3974 4.59855C25.377 5.60784 25.3847 6.61714 25.3847 7.72417C26.3493 7.17355 27.2313 6.6781 28.0988 6.15942C28.1842 6.10813 28.2202 5.91073 28.2134 5.78396C28.1959 5.46269 28.1425 5.14335 28.1026 4.82305C28.0162 4.13696 28.4251 3.57958 29.073 3.50313C29.6529 3.43442 30.1697 3.87085 30.2737 4.51146C30.2892 4.60532 30.3145 4.69725 30.3514 4.85886C30.5835 4.73499 30.7865 4.62564 30.9905 4.51823C31.654 4.16599 32.4116 4.37017 32.7536 4.9924C33.077 5.58268 32.8488 6.3249 32.2271 6.69358C32.0464 6.801 31.8648 6.90454 31.6239 7.04389C31.7666 7.15904 31.8832 7.2529 31.9988 7.34774C32.4825 7.74739 32.5845 8.37251 32.2455 8.85636C31.891 9.36245 31.2586 9.47954 30.7059 9.12344C30.3805 8.91345 30.0784 8.66669 29.753 8.45574C29.6442 8.38606 29.4567 8.30574 29.3722 8.35219C28.4698 8.84571 27.582 9.36439 26.6446 9.90145C27.5441 10.423 28.3746 10.9146 29.2187 11.382C29.3237 11.4401 29.5296 11.411 29.6403 11.3423C29.956 11.1478 30.2406 10.9049 30.5466 10.695C31.0896 10.3234 31.7336 10.4114 32.1047 10.8962C32.4748 11.3801 32.3844 12.0246 31.8861 12.4465C31.7919 12.5268 31.6977 12.6071 31.5772 12.7097C32.0891 13.0871 32.7759 13.2661 32.8614 13.9696C32.8983 14.2696 32.8371 14.6305 32.6933 14.8937C32.3096 15.5943 31.7666 15.5905 30.362 14.9741Z" fill="#1E7BE2"/>
<path d="M13.8005 13.738C13.4403 14.7175 13.5123 15.5562 14.2886 16.2045C15.123 16.9002 16.0036 16.7851 16.8541 16.2207C17.7594 17.5356 18.2777 17.7088 19.7271 17.1927C19.7271 17.3894 19.7271 17.5787 19.7271 17.7948C16.2143 17.7948 12.7253 17.7948 9.19532 17.7948C9.19532 18.3292 9.19854 18.842 9.19424 19.3538C9.18886 20.0506 8.91576 20.3291 8.22117 20.3323C6.81264 20.3377 5.40303 20.3398 3.99449 20.3323C3.22679 20.328 2.7838 19.9097 2.77735 19.1388C2.7623 17.3292 2.59671 15.4949 2.83756 13.7176C2.99347 12.5692 2.92573 11.4091 3.16228 10.2898C3.31066 9.58872 3.69236 8.93606 3.98267 8.26728C4.06653 8.07482 4.19771 7.90386 4.32996 7.68666C3.46334 7.55656 2.63649 7.46409 1.82363 7.30066C0.987113 7.13292 0.764543 6.54156 1.25054 5.83514C1.74299 5.11904 2.515 5.02442 3.29775 4.99539C3.51065 4.98787 3.72891 5.01797 3.93858 5.06206C4.80198 5.24699 5.17078 5.44806 4.99014 6.32651C4.97402 6.405 5.0095 6.49317 5.04498 6.7609C5.42776 6.262 5.76645 5.90503 6.00837 5.49107C6.76533 4.19221 7.49755 2.87937 8.21257 1.55793C8.44051 1.13644 8.7577 0.897743 9.21789 0.863336C11.4995 0.689151 13.78 0.480559 16.0659 0.371962C17.71 0.294546 19.3593 0.356909 21.0388 0.422497C20.0324 0.897743 19.5647 1.63964 19.7378 2.74389C18.196 1.99554 17.4648 2.16327 16.6616 3.44923C16.0423 3.1471 15.3703 2.95678 14.7402 3.34279C14.3628 3.57396 13.9897 3.9148 13.779 4.29758C13.2586 5.24377 13.6381 6.13727 14.7015 6.90928C14.6209 7.54366 14.3918 8.1447 14.523 8.65328C14.6553 9.16508 15.1445 9.58442 15.5187 10.1005C15.2079 10.1564 14.7875 10.2822 14.3628 10.2984C13.4865 10.3328 12.607 10.3263 11.7296 10.3005C11.3447 10.2898 11.1619 10.4629 11.0888 10.7983C10.9146 11.594 11.0189 12.3714 11.3339 13.109C11.5307 13.5692 11.9629 13.7229 12.4392 13.7348C12.8704 13.7466 13.2994 13.738 13.8005 13.738ZM9.63293 10.6629C9.65551 10.6564 9.67916 10.6489 9.70174 10.6424C9.6211 10.3457 9.634 9.92849 9.44046 9.78011C9.1093 9.52636 8.65663 9.41561 8.24052 9.29519C8.03516 9.23605 7.79216 9.32207 7.57604 9.28443C6.96102 9.17906 6.35244 9.03391 5.73849 8.92316C5.18261 8.82317 4.93101 9.00488 4.96971 9.56722C5.02025 10.3123 5.11917 11.0585 5.26432 11.7908C5.36002 12.2714 5.65893 12.6026 6.21804 12.6552C7.01693 12.7305 7.81044 12.8681 8.60825 12.9638C9.12005 13.0251 9.43724 12.7735 9.4953 12.2639C9.55444 11.7327 9.58777 11.1972 9.63293 10.6629Z" fill="#666666"/>
</svg>
