<svg width="25" height="24" viewBox="0 0 25 24" fill="none" xmlns="http://www.w3.org/2000/svg">
<g clip-path="url(#clip0_69_656)">
<path d="M12.0524 10.2307C8.50752 10.2307 4.96239 10.2339 1.41748 10.2289C0.152543 10.2272 -0.00573549 10.0808 0.0123289 8.79132C0.0549091 5.76318 -0.442076 6.57715 2.16328 5.13974C5.13809 3.49868 8.15699 1.93762 11.1279 0.289675C11.8438 -0.107311 12.3832 -0.0907517 13.0972 0.305374C16.3806 2.12708 19.687 3.90878 23.0145 5.64855C23.8252 6.07242 24.1287 6.58639 24.1128 7.498C24.0603 10.4728 24.3594 10.2337 21.3984 10.2311C18.2831 10.2287 15.1677 10.2307 12.0524 10.2307Z" fill="#9D9D9D"/>
<path d="M12.0513 23.994C8.53927 23.994 5.02747 23.9959 1.51546 23.9929C0.139339 23.9918 0.00772778 23.8699 0.00944819 22.543C0.0135342 19.4061 -0.305173 19.6936 2.80362 19.6931C9.36162 19.6923 15.9196 19.6923 22.4776 19.6934C24.003 19.6936 24.092 19.7783 24.0925 21.251C24.0935 24.2337 24.3639 23.9974 21.4043 23.9946C18.2867 23.9918 15.1691 23.994 12.0513 23.994Z" fill="#9D9D9D"/>
<path d="M3.44886 14.9485C3.44929 14.0169 3.45574 13.0855 3.44735 12.1539C3.44112 11.4481 3.76456 11.0818 4.48326 11.0919C4.51917 11.0924 4.55487 11.0928 4.59078 11.0911C6.84775 10.99 6.88947 11.0291 6.88947 13.2547C6.88947 14.7235 6.87334 16.1927 6.89528 17.6613C6.90732 18.4693 6.57227 18.8181 5.74733 18.8433C3.49101 18.9119 3.44864 18.8929 3.44864 16.668C3.44821 16.0949 3.44821 15.5218 3.44886 14.9485Z" fill="#9D9D9D"/>
<path d="M10.3307 14.9816C10.3312 14.05 10.3423 13.1184 10.3275 12.1872C10.3152 11.4182 10.6774 11.0646 11.4395 11.0898C11.7974 11.1016 12.1576 11.1126 12.5139 11.0872C13.4421 11.0206 13.7999 11.4472 13.7812 12.3627C13.7455 14.1175 13.7509 15.8738 13.7791 17.6289C13.7931 18.5035 13.4195 18.8897 12.5539 18.836C12.2326 18.816 11.9077 18.8132 11.5871 18.8366C10.6591 18.9046 10.2813 18.4768 10.3223 17.5609C10.3604 16.7027 10.3303 15.8414 10.3307 14.9816Z" fill="#9D9D9D"/>
<path d="M20.6523 15.0173C20.6519 15.913 20.639 16.8089 20.6559 17.7042C20.6704 18.4555 20.3538 18.8562 19.5751 18.8325C19.4319 18.8282 19.2884 18.8321 19.1452 18.8327C17.2123 18.8422 17.2121 18.8422 17.2119 16.948C17.2117 15.4074 17.2332 13.8666 17.2037 12.3266C17.1874 11.4747 17.5087 11.0309 18.3966 11.0902C18.5037 11.0973 18.6114 11.0913 18.719 11.0909C20.6521 11.0816 20.6523 11.0816 20.6525 12.9752C20.6527 13.6558 20.6525 14.3364 20.6523 15.0173Z" fill="#9D9D9D"/>
</g>
<defs>
<clipPath id="clip0_69_656">
<rect width="24.1133" height="24" fill="white"/>
</clipPath>
</defs>
</svg>
