<svg width="32" height="25" viewBox="0 0 32 25" fill="none" xmlns="http://www.w3.org/2000/svg">
<path d="M0.949383 7.31554C10.9569 7.31554 20.9292 7.31554 30.9632 7.31554C30.9746 7.55856 30.9922 7.78142 30.9922 8.00429C30.9934 12.556 31.03 17.1091 30.9657 21.6595C30.9519 22.6782 31.1055 23.5646 31.6495 24.4044C31.7451 24.5518 31.7666 24.7457 31.8484 25C21.2352 25 10.7039 25 0 25C0.225384 24.4913 0.420549 24.0557 0.609418 23.6187C0.715185 23.3745 0.896499 23.1264 0.897759 22.8796C0.914127 17.8658 0.907832 12.8519 0.907832 7.83808C0.907832 7.67566 0.933014 7.51323 0.949383 7.31554ZM15.5993 14.9056C16.3964 12.8129 17.1317 10.8827 17.867 8.95241C17.828 8.93478 17.789 8.9159 17.7499 8.89827C15.6736 11.9365 13.5961 14.9736 11.414 18.1667C12.7965 17.9111 13.999 17.6895 15.2984 17.449C14.4901 19.4384 13.7195 21.3359 12.9489 23.2335C12.9791 23.2473 13.0093 23.2624 13.0395 23.2763C15.4017 20.233 17.7625 17.1896 20.2342 14.0053C18.6024 14.3226 17.172 14.6009 15.5993 14.9056ZM2.70335 12.0272C2.65298 13.7371 4.11861 14.9874 5.67111 14.932C7.28532 14.8741 8.57718 13.5432 8.4689 11.9101C8.36439 10.3312 7.13296 9.15135 5.48602 9.19291C3.94611 9.23068 2.66054 10.5553 2.70335 12.0272ZM23.4324 11.9894C23.4802 13.717 24.7394 14.9773 26.375 14.9345C27.9149 14.8942 29.2659 13.5432 29.2382 12.0713C29.208 10.4747 27.8444 9.15513 26.2616 9.18787C24.728 9.22061 23.3921 10.5427 23.4324 11.9894Z" fill="#666666"/>
<path d="M8.23841 4.35911C8.23841 3.93352 8.26107 3.59985 8.23337 3.2687C8.18678 2.69328 8.42853 2.4956 9.00144 2.50064C11.7677 2.5233 14.5353 2.51574 17.3029 2.51574C19.1488 2.51574 20.9934 2.50945 22.8393 2.50945C23.6149 2.50945 23.6602 2.55981 23.6653 3.3304C23.6678 3.64267 23.6653 3.95493 23.6653 4.35785C23.9448 4.35785 24.1676 4.35785 24.3905 4.35785C26.5512 4.35785 28.7131 4.37674 30.8738 4.34652C31.4907 4.3377 31.672 4.55427 31.6557 5.14984C31.6053 6.98313 31.8886 6.75775 30.0478 6.75901C20.4394 6.76405 10.8297 6.76153 1.21876 6.76153C0.255531 6.76153 0.250494 6.76027 0.25679 5.77563C0.265604 4.18283 0.0716981 4.36541 1.65946 4.36037C3.5897 4.35407 5.51995 4.35911 7.45019 4.35911C7.67809 4.35911 7.90474 4.35911 8.23841 4.35911Z" fill="#1E7BE2"/>
<path d="M10.7343 2.23748C10.3225 2.23748 10.0178 2.23748 9.65141 2.23748C9.65141 1.71998 9.61867 1.24025 9.66023 0.766816C9.71437 0.149842 10.1802 0.00630171 10.7015 0.00378345C12.3119 -0.00377132 13.9224 0.00252432 15.5341 0.00252432C17.3132 0.00252432 19.0911 0.0012652 20.8702 6.06619e-06C22.0651 -0.00125306 22.2616 0.192653 22.2628 1.37498C22.2628 1.64317 22.2628 1.91262 22.2628 2.22867C21.9015 2.22867 21.5993 2.22867 21.2253 2.22867C21.2253 1.80434 21.2253 1.37623 21.2253 0.858732C17.706 0.858732 14.256 0.858732 10.7355 0.858732C10.7343 1.31202 10.7343 1.74264 10.7343 2.23748Z" fill="#1E7BE2"/>
<path d="M25.2454 3.84034C25.0363 3.15286 25.4594 3.04457 25.9983 2.99421C25.9983 2.64543 25.9958 2.31428 25.9983 1.98313C26.0008 1.62302 26.1784 1.44926 26.546 1.45429C27.09 1.46185 27.6352 1.47318 28.1791 1.44926C28.6715 1.42785 28.8704 1.6419 28.8402 2.12163C28.8225 2.39108 28.8377 2.6618 28.8377 2.97784C29.3073 3.0622 29.8336 3.11382 29.573 3.83908C28.1527 3.84034 26.716 3.84034 25.2454 3.84034Z" fill="#1E7BE2"/>
<path d="M3.00545 2.97911C3.03441 2.90482 3.04826 2.88593 3.04952 2.86578C3.13388 1.4543 3.13388 1.4543 4.54914 1.4543C5.81079 1.4543 5.81079 1.4543 5.94803 2.98036C6.36606 3.06724 6.89742 3.11761 6.633 3.87812C5.9367 3.87812 5.20892 3.87812 4.48241 3.87812C3.77352 3.87812 3.06463 3.87812 2.36959 3.87812C2.19583 3.17931 2.20968 3.16168 3.00545 2.97911Z" fill="#1E7BE2"/>
<path d="M7.55368 13.0169C6.2039 13.0169 4.94225 13.0169 3.65668 13.0169C3.63779 12.4754 3.62017 12.0171 3.60254 11.4971C4.93722 11.4971 6.22027 11.4971 7.55494 11.4971C7.55368 11.9907 7.55368 12.4679 7.55368 13.0169Z" fill="#666666"/>
<path d="M26.9024 12.6731C26.9024 13.1718 26.9024 13.5835 26.9024 14.0393C26.4894 14.0393 26.1268 14.0393 25.7478 14.0393C25.6962 13.6074 25.7868 13.0572 25.5539 12.8066C25.3436 12.58 24.7808 12.6807 24.3325 12.6328C24.3325 12.2727 24.3325 11.9076 24.3325 11.4858C24.7795 11.4656 25.1875 11.4467 25.6483 11.4253C25.6697 10.9821 25.6899 10.5704 25.7113 10.1108C26.0953 10.1108 26.4592 10.1108 26.8835 10.1108C26.9074 10.5251 26.9301 10.9355 26.9553 11.3699C27.4035 11.443 27.8921 11.4241 28.2509 11.6293C28.4008 11.7162 28.2761 12.2815 28.2761 12.6719C27.8203 12.6731 27.4086 12.6731 26.9024 12.6731Z" fill="#666666"/>
</svg>
