<svg width="30" height="30" viewBox="0 0 30 30" fill="none" xmlns="http://www.w3.org/2000/svg">
<circle cx="15" cy="15" r="13.5" fill="#1E7BE2" stroke="white" stroke-width="3"/>
<path d="M21.7143 12V19.7143C21.7143 20.4241 21.1384 21 20.4286 21H9.28571C8.57589 21 8 20.4241 8 19.7143V12C8 11.2902 8.57589 10.7143 9.28571 10.7143H11.6429L11.9723 9.83304C12.1598 9.33214 12.6393 9 13.175 9H16.5366C17.0723 9 17.5518 9.33214 17.7393 9.83304L18.0714 10.7143H20.4286C21.1384 10.7143 21.7143 11.2902 21.7143 12ZM18.0714 15.8571C18.0714 14.0839 16.6304 12.6429 14.8571 12.6429C13.0839 12.6429 11.6429 14.0839 11.6429 15.8571C11.6429 17.6304 13.0839 19.0714 14.8571 19.0714C16.6304 19.0714 18.0714 17.6304 18.0714 15.8571ZM17.2143 15.8571C17.2143 17.1562 16.1562 18.2143 14.8571 18.2143C13.558 18.2143 12.5 17.1562 12.5 15.8571C12.5 14.558 13.558 13.5 14.8571 13.5C16.1562 13.5 17.2143 14.558 17.2143 15.8571Z" fill="white"/>
</svg>
