<svg width="29" height="22" viewBox="0 0 29 22" fill="none" xmlns="http://www.w3.org/2000/svg">
<path d="M0 19.6429C0 20.9442 1.0558 22 2.35714 22H25.9286C27.2299 22 28.2857 20.9442 28.2857 19.6429V11H0V19.6429ZM9.42857 16.3036C9.42857 15.9795 9.69375 15.7143 10.0179 15.7143H16.6964C17.0205 15.7143 17.2857 15.9795 17.2857 16.3036V18.2679C17.2857 18.592 17.0205 18.8571 16.6964 18.8571H10.0179C9.69375 18.8571 9.42857 18.592 9.42857 18.2679V16.3036ZM3.14286 16.3036C3.14286 15.9795 3.40804 15.7143 3.73214 15.7143H7.26786C7.59197 15.7143 7.85714 15.9795 7.85714 16.3036V18.2679C7.85714 18.592 7.59197 18.8571 7.26786 18.8571H3.73214C3.40804 18.8571 3.14286 18.592 3.14286 18.2679V16.3036ZM28.2857 2.35714V4.71429H0V2.35714C0 1.0558 1.0558 0 2.35714 0H25.9286C27.2299 0 28.2857 1.0558 28.2857 2.35714Z" fill="#9D9D9D"/>
</svg>
