<svg width="279" height="78" viewBox="0 0 279 78" fill="none" xmlns="http://www.w3.org/2000/svg">
<path d="M41.6225 21.6973C43.5386 23.4321 44.4901 25.374 44.4901 27.5296C44.4901 29.1155 43.9658 30.6108 42.9171 32.0155C41.5125 33.9315 39.4216 35.3815 36.6382 36.3655C34.1848 37.2329 31.4661 37.6666 28.4755 37.6666H1.52771V17.5285H29.4659C30.3009 17.5285 31.0842 17.4056 31.7962 17.166C32.7802 16.81 33.2786 16.2857 33.2786 15.5995C33.2786 14.9134 32.7866 14.402 31.7962 14.0719C31.0777 13.8324 30.3009 13.7094 29.4659 13.7094H1.52771L8.29864 5.3331H28.482C31.4985 5.3331 34.2366 5.77975 36.6899 6.67952C39.441 7.6958 41.5189 9.17816 42.9236 11.1201C43.9723 12.5572 44.4966 14.0783 44.4966 15.6966C44.4966 17.904 43.5386 19.9042 41.6225 21.6973ZM29.4659 25.9178H11.5741V29.3291H29.4659C30.5145 29.3291 31.4985 29.2256 32.4241 29.0119C33.7964 28.7142 34.4891 28.2481 34.4891 27.6202C34.4891 26.9923 33.8029 26.5262 32.4241 26.2285C31.5049 26.0213 30.5145 25.9178 29.4659 25.9178Z" fill="white"/>
<path d="M143.025 22.9984C143.025 32.8052 136.299 37.7119 122.841 37.7119H120.731C107.273 37.7119 100.548 32.8117 100.548 22.9984V5.37841H110.549V23.0048C110.549 25.9372 111.837 27.8209 114.407 28.6559C115.779 29.1349 118.595 29.3744 122.835 29.3744C126.214 29.3744 128.622 29.0184 130.059 28.2999C132.001 27.3742 132.972 25.6071 132.972 23.0048V5.37841H143.018L143.025 22.9984Z" fill="white"/>
<path d="M181.954 29.368L175.449 37.7119H146.883V5.37841H156.884V29.3744H181.954V29.368Z" fill="white"/>
<path d="M230.885 21.2506C230.885 25.976 229.04 29.8988 225.344 33.0253C221.654 36.1518 216.994 37.7119 211.375 37.7119H201.646C195.995 37.7119 191.321 36.1518 187.631 33.0253C183.935 29.8988 182.09 25.976 182.09 21.2506C182.09 16.5252 183.922 12.6996 187.586 9.76721C191.25 6.83487 195.936 5.37193 201.646 5.37193H211.375C217.084 5.37193 221.764 6.83487 225.415 9.76721C229.06 12.6996 230.885 16.5252 230.885 21.2506ZM211.375 13.7612H201.646C198.869 13.7612 196.577 14.4991 194.784 15.9815C192.991 17.4638 192.091 19.354 192.091 21.6584C192.091 23.9629 192.991 25.8207 194.784 27.2448C196.577 28.6624 198.869 29.3744 201.646 29.3744H211.375C214.158 29.3744 216.443 28.6624 218.236 27.2448C220.029 25.8271 220.929 23.9629 220.929 21.6584C220.929 19.354 220.023 17.4638 218.217 15.9815C216.404 14.5056 214.126 13.7612 211.375 13.7612Z" fill="white"/>
<path d="M278.78 22.9984C278.78 32.8052 272.054 37.7119 258.597 37.7119H256.486C243.029 37.7119 236.303 32.8117 236.303 22.9984V5.37841H246.304V23.0048C246.304 25.9372 247.592 27.8209 250.162 28.6559C251.534 29.1349 254.35 29.3744 258.59 29.3744C261.969 29.3744 264.377 29.0184 265.814 28.2999C267.756 27.3742 268.727 25.6071 268.727 23.0048V5.37841H278.773V22.9984H278.78Z" fill="white"/>
<path d="M30.89 53.6553L26.1904 59.753H9.55439C8.6611 59.753 8.21445 60.0702 8.21445 60.6981C8.21445 61.3324 8.6611 61.6432 9.55439 61.6432H21.5233C24.3715 61.6432 26.7536 62.3423 28.6697 63.734C30.6504 65.2163 31.6408 67.1259 31.6408 69.4757C31.6408 71.806 30.6375 73.6832 28.6373 75.1203C26.7665 76.4926 24.3974 77.1723 21.5233 77.1723H0L4.69952 71.1069H21.5298C22.2936 71.1069 22.9797 70.9775 23.5817 70.7185C24.365 70.3949 24.7534 69.9482 24.7534 69.3786C24.7534 68.7895 24.3585 68.3429 23.5817 68.0386C22.9927 67.825 22.313 67.715 21.5298 67.715H9.55439C6.9004 67.715 4.68657 67.1065 2.89998 65.8896C0.983921 64.582 0.0323658 62.8536 0.0323658 60.7046C0.0323658 58.5296 0.990394 56.7883 2.89998 55.4872C4.6801 54.2702 6.9004 53.6617 9.55439 53.6617H30.89V53.6553Z" fill="white"/>
<path d="M60.0775 71.1069L55.378 77.1723H34.5344V53.6553H60.071L55.3715 59.753H41.849V62.2322H58.9382L54.2387 68.2976H41.849V71.1005L60.0775 71.1069Z" fill="white"/>
<path d="M97.7189 77.1723H87.1159L80.0019 71.2688H69.9555V77.1723H62.6603V65.171H82.9472C84.19 65.171 85.2063 64.9898 86.0155 64.6143C87.0382 64.1353 87.5496 63.4298 87.5496 62.4976C87.5496 60.6722 86.0155 59.7595 82.9472 59.7595H62.6603L67.4245 53.6618H82.2675C85.9442 53.6618 88.9219 54.3609 91.2069 55.7526C93.7703 57.3385 95.0585 59.6041 95.0585 62.5365C95.0585 64.1871 94.5406 65.6824 93.5114 67.0224C92.4821 68.3623 91.0516 69.3851 89.2197 70.1036L97.7189 77.1723Z" fill="white"/>
<path d="M133.865 53.6553L118.012 74.8873C116.705 76.648 115.378 77.5283 114.031 77.5283C112.685 77.5283 111.358 76.635 110.05 74.8549L94.5859 53.6553H103.655L114.154 68.2005L124.725 53.6553H133.865Z" fill="white"/>
<path d="M144.818 77.1723H137.542V53.6553H144.818V77.1723Z" fill="white"/>
<path d="M179.002 71.1069L174.303 77.1723H162.496C158.405 77.1723 155.019 76.033 152.333 73.7609C149.647 71.4889 148.307 68.6342 148.307 65.1969C148.307 61.7597 149.634 58.9762 152.288 56.8466C154.942 54.7169 158.34 53.6488 162.496 53.6488H179.002L174.303 59.7465H162.496C160.496 59.7465 158.845 60.2838 157.537 61.3584C156.23 62.4329 155.583 63.8117 155.583 65.4818C155.583 67.1324 156.236 68.4853 157.537 69.5275C158.845 70.5697 160.496 71.094 162.496 71.094H179.002V71.1069Z" fill="white"/>
<path d="M207.51 71.1069L202.811 77.1723H181.967V53.6553H207.504L202.804 59.753H189.275V62.2322H206.364L201.665 68.2976H189.275V71.1005L207.51 71.1069Z" fill="white"/>
<path d="M214.21 75.6252C214.21 76.1107 214.022 76.4991 213.647 76.8098C213.271 77.114 212.786 77.2694 212.197 77.2694C211.608 77.2694 211.122 77.114 210.747 76.8098C210.371 76.5056 210.184 76.1107 210.184 75.6252C210.184 75.1268 210.371 74.7319 210.747 74.4212C211.122 74.117 211.608 73.9616 212.197 73.9616C212.786 73.9616 213.265 74.117 213.647 74.4212C214.022 74.7319 214.21 75.1332 214.21 75.6252Z" fill="white"/>
<path d="M232.652 73.9486L230.108 77.237H223.713C221.499 77.237 219.66 76.6221 218.21 75.3922C216.754 74.1623 216.029 72.6152 216.029 70.7509C216.029 68.8931 216.748 67.3849 218.185 66.2262C219.622 65.0739 221.466 64.4914 223.713 64.4914H232.652L230.108 67.7927H223.713C222.632 67.7927 221.732 68.084 221.026 68.6665C220.321 69.2491 219.965 69.9935 219.965 70.8998C219.965 71.7931 220.321 72.5246 221.026 73.0877C221.732 73.6509 222.625 73.9357 223.713 73.9357H232.652V73.9486Z" fill="white"/>
<path d="M253.748 70.7509C253.748 72.6087 253.023 74.1558 251.567 75.3922C250.11 76.6221 248.278 77.237 246.065 77.237H242.232C240.006 77.237 238.167 76.6221 236.711 75.3922C235.254 74.1623 234.529 72.6152 234.529 70.7509C234.529 68.8931 235.248 67.3849 236.691 66.2262C238.135 65.0739 239.98 64.4914 242.232 64.4914H246.065C248.311 64.4914 250.156 65.0675 251.593 66.2262C253.03 67.3784 253.748 68.8866 253.748 70.7509ZM246.065 67.7991H242.232C241.139 67.7991 240.239 68.0904 239.527 68.673C238.821 69.2556 238.465 70 238.465 70.9063C238.465 71.8125 238.815 72.544 239.527 73.1071C240.239 73.6703 241.132 73.9486 242.232 73.9486H246.065C247.159 73.9486 248.058 73.6703 248.77 73.1071C249.476 72.5504 249.832 71.8125 249.832 70.9063C249.832 70 249.476 69.2556 248.764 68.673C248.045 68.0904 247.146 67.7991 246.065 67.7991Z" fill="white"/>
<path d="M278.806 77.2694H274.475L272.799 70.5373L269.232 76.279C268.759 77.0234 268.112 77.3924 267.29 77.3924C266.863 77.3924 266.455 77.2888 266.054 77.0752C265.652 76.8616 265.354 76.5962 265.154 76.279L261.568 70.5373L259.904 77.2694H255.561L258.862 65.9608C258.991 65.5012 259.263 65.1193 259.684 64.8021C260.105 64.4914 260.584 64.336 261.121 64.336C261.956 64.336 262.681 64.828 263.296 65.8184L267.18 72.1621L271.083 65.8184C271.685 64.828 272.404 64.336 273.239 64.336C273.795 64.336 274.274 64.4914 274.689 64.8021C275.103 65.1128 275.375 65.5012 275.517 65.9608L278.806 77.2694Z" fill="white"/>
<path d="M83.9635 3.65655C83.711 4.09672 83.5363 4.44627 83.3226 4.76993C82.7854 5.60497 82.2028 6.41412 81.6849 7.2621C80.9988 8.37548 81.0894 9.41119 82.1316 10.2333C82.8889 10.8288 83.8017 11.3337 84.7273 11.6574C85.9054 12.0717 86.8181 11.6639 87.5043 10.667C88.0934 9.81253 88.6501 8.94512 89.2326 8.08419C89.4204 7.81232 89.6404 7.56634 89.9447 7.17795C90.2425 7.5275 90.5467 7.78643 90.7215 8.10361C91.3494 9.26878 91.5177 10.5052 91.2523 11.7868C90.7862 14.0783 89.6146 15.9361 87.4137 17.1143C85.8472 17.9558 84.1836 17.9817 82.5329 17.3538C81.9503 17.1337 81.5619 17.2308 81.1541 17.6321C79.5812 19.1663 78.0146 20.7069 76.4158 22.2151C73.1145 25.3222 69.8002 28.4229 66.4536 31.4912C65.9228 31.9767 65.7221 32.4492 65.748 33.1418C65.8775 36.1842 63.9161 38.7282 60.8607 39.5761C58.2067 40.3141 55.2874 39.4208 53.5979 37.3559C51.876 35.2521 51.6883 32.365 53.1318 30.1318C54.5688 27.905 57.3717 26.6816 60.0775 27.1412C60.5759 27.2253 60.8996 27.0894 61.2232 26.7722C62.7703 25.2705 64.3174 23.7622 65.8904 22.2798C69.1982 19.1468 72.506 16.0138 75.8397 12.9067C76.3575 12.4277 76.4676 12.0328 76.2216 11.3661C75.147 8.48553 76.6294 5.1389 79.5488 3.82485C80.9276 3.19695 82.3711 3.13222 83.9635 3.65655ZM58.1097 29.5363C57.8831 29.6593 57.553 29.7693 57.3199 29.9764C56.582 30.6302 55.857 31.3034 55.1838 32.0155C54.9961 32.2097 54.8666 32.5851 54.9249 32.8311C55.1579 33.8409 55.4427 34.8443 55.7728 35.8282C55.857 36.0742 56.1353 36.3655 56.3878 36.4496C57.3523 36.7474 58.3362 36.9675 59.3201 37.2134C59.9221 37.3688 60.4141 37.207 60.8478 36.7862C61.4757 36.1713 62.1489 35.5951 62.738 34.9478C62.9451 34.7213 63.0875 34.307 63.0293 34.0222C62.8027 32.9929 62.4855 31.9767 62.1683 30.9668C62.1101 30.7791 61.9159 30.5331 61.7346 30.4813C60.5759 30.1447 59.4043 29.8599 58.1097 29.5363Z" fill="white"/>
<path d="M65.4631 37.8543C66.6671 36.2942 67.1332 34.6306 67.0296 32.7211C71.7809 34.2617 76.1633 33.7179 79.976 30.682C83.8081 27.6331 85.0639 23.6457 84.1965 18.9656C86.2032 18.8296 88.0739 18.4671 89.3685 17.3149C90.1518 17.425 90.7344 17.5415 91.3299 17.5868C91.9966 17.6386 92.6699 17.5868 93.3366 17.6386C94.1198 17.6968 94.5665 18.0011 94.5859 18.7196C94.6506 20.6227 94.6377 22.5323 94.5989 24.4419C94.5859 25.0504 94.1263 25.4582 93.4596 25.5035C92.644 25.5617 91.8219 25.5682 90.9998 25.5747C90.0741 25.5812 89.8152 25.73 89.4721 26.5133C88.9607 27.6785 88.4558 28.8436 87.9186 29.9959C87.6596 30.5525 87.7308 31.0121 88.1969 31.4329C88.7601 31.9443 89.3232 32.4492 89.8476 32.9865C90.5208 33.6791 90.6114 34.1969 89.9576 34.8766C88.7147 36.1713 87.4136 37.4335 86.0543 38.6181C85.2581 39.3172 84.546 39.2007 83.7693 38.4822C83.2579 38.0096 82.7465 37.5436 82.2545 37.0516C81.7885 36.5791 81.29 36.5402 80.6751 36.7927C79.4128 37.317 78.1311 37.8154 76.8494 38.2945C76.2927 38.5016 76.0144 38.8188 76.0144 39.3884C76.0079 40.2235 75.995 41.0585 75.9238 41.8871C75.8526 42.6962 75.5289 43.0716 74.668 43.0975C72.726 43.1493 70.7776 43.1364 68.8357 43.0652C67.9747 43.0328 67.6187 42.6121 67.5604 41.79C67.5087 41.1232 67.5281 40.45 67.5281 39.7768C67.5345 38.7217 67.3921 38.5275 66.3305 38.1844C66.0781 38.0938 65.8256 37.9902 65.4631 37.8543Z" fill="white"/>
<path d="M74.6098 9.91609C69.6708 9.03574 65.4632 10.2139 62.1813 13.7417C58.893 17.2696 58.3751 21.3606 59.8704 25.866C57.8637 25.7883 56.0383 26.1573 54.4071 27.1735C54.3359 27.0959 54.2711 27.0635 54.2517 27.0117C53.6497 25.5099 53.6497 25.5164 51.9667 25.5488C51.3647 25.5617 50.7562 25.5488 50.1542 25.4905C49.3645 25.4193 48.9502 25.1151 48.9243 24.3901C48.866 22.5452 48.8531 20.6939 48.9308 18.8491C48.9696 17.9558 49.5004 17.5997 50.5102 17.5674C51.2676 17.5415 52.0249 17.5609 52.7823 17.5738C53.462 17.5868 53.8439 17.2761 54.0834 16.6806C54.5106 15.619 54.9702 14.5638 55.4492 13.5216C55.9347 12.473 55.9088 12.2076 55.0673 11.4114C54.6725 11.036 54.2323 10.6993 53.8245 10.3368C53.0736 9.66364 52.9635 9.15226 53.5591 8.34959C54.051 7.68932 54.6466 7.08732 55.2486 6.50473C55.9606 5.82505 56.7115 5.17126 57.4948 4.56279C58.2845 3.94784 59.0095 3.9802 59.7668 4.62752C60.2264 5.02238 60.6278 5.48845 61.055 5.91568C61.7412 6.60831 62.1684 6.65362 63.0682 6.2717C64.2074 5.78621 65.3597 5.31367 66.5378 4.91234C67.3016 4.65341 67.5929 4.18734 67.5864 3.48824C67.58 2.87976 67.5282 2.26481 67.5411 1.65634C67.5605 0.568844 67.8971 0.0898293 69.0364 0.0445171C70.9525 -0.039634 72.8815 0.0121513 74.7975 0.0639366C75.4772 0.0833561 75.9045 0.510585 75.9433 1.17732C75.9821 1.84406 75.9627 2.51727 76.0145 3.19047C76.0469 3.60476 76.1698 4.01904 76.2346 4.43332C76.2605 4.59515 76.3058 4.81524 76.2216 4.93176C75.1341 6.40764 74.558 8.01298 74.6098 9.91609Z" fill="white"/>
</svg>
