<svg width="31" height="25" viewBox="0 0 31 25" fill="none" xmlns="http://www.w3.org/2000/svg">
<path d="M7.76739 19.0199C7.76739 19.4585 7.77593 19.822 7.76549 20.1845C7.74365 20.9105 7.28701 21.3682 6.56075 21.372C5.15285 21.3796 3.74399 21.3796 2.33514 21.3692C1.47407 21.3625 1.07059 20.94 1.0554 20.0694C1.05256 19.8953 1.0554 19.7202 1.05161 19.5461C1.00129 17.2358 0.985152 14.9236 0.886418 12.6152C0.831355 11.3459 1.4266 10.5114 2.40065 9.84918C2.72628 9.62747 3.06425 9.4248 3.41457 9.07084C3.20191 9.05086 2.97881 8.97854 2.77944 9.02041C1.85667 9.21071 1.04401 9.02802 0.37946 8.34959C-0.298384 7.65879 -0.0344617 6.77769 0.903507 6.53791C2.07407 6.23913 3.18102 6.84429 3.61488 8.00134C3.66805 8.14311 3.83039 8.24302 3.99937 8.42286C4.16171 8.07841 4.29178 7.81579 4.41045 7.54746C4.79114 6.69395 5.17278 5.83949 5.54683 4.98218C5.96455 4.02496 6.63765 3.56537 7.73131 3.58345C10.5319 3.63103 13.3335 3.59963 16.1341 3.59963C16.3686 3.59963 16.604 3.59963 16.8632 3.59963C16.9059 4.03352 16.9449 4.42079 16.9885 4.86324C16.8072 4.8718 16.6411 4.88512 16.4759 4.88512C13.5955 4.88512 10.7152 4.89464 7.83574 4.8718C7.26423 4.86705 6.92246 5.06401 6.70315 5.59305C6.23797 6.71774 5.7367 7.82721 5.21361 9.02707C5.47183 9.04039 5.65126 9.05752 5.83069 9.05847C10.23 9.05847 14.6294 9.06227 19.0287 9.04705C19.4284 9.0461 19.6002 9.15267 19.6999 9.55992C20.017 10.8521 20.3872 12.1319 20.7357 13.4164C20.7841 13.5953 20.822 13.778 20.8828 14.032C20.5249 14.032 20.2287 14.032 19.9334 14.032C15.93 14.032 11.9265 14.0311 7.92213 14.033C7.03448 14.033 6.87404 14.1966 6.86834 15.0901C6.86549 15.4707 6.8579 15.8513 6.86454 16.2319C6.87594 16.9446 7.10568 17.1739 7.80821 17.1739C12.2075 17.1739 16.6069 17.173 21.0062 17.172C21.2075 17.172 21.4088 17.172 21.5739 17.172C21.179 17.7525 20.8069 18.3281 20.3967 18.8752C20.3189 18.9799 20.0948 19.0123 19.9372 19.0132C16.7094 19.0208 13.4806 19.0199 10.2528 19.0199C9.44965 19.0199 8.64555 19.0199 7.76739 19.0199ZM3.519 11.9178C2.35698 11.8778 1.85097 12.678 2.3285 13.5896C2.74337 14.3812 3.77248 14.9464 4.64874 14.8646C5.48702 14.7866 5.91518 14.1139 5.56582 13.346C5.1481 12.4249 4.35633 12.0215 3.519 11.9178Z" fill="#666666"/>
<path d="M25.6686 24.8212C25.1531 25.1172 24.7154 25.003 24.2958 24.787C21.592 23.3949 21.0538 19.4889 23.2933 17.4479C23.5221 17.2396 23.5515 17.0702 23.4765 16.7952C22.7075 13.9664 21.9547 11.1327 21.1791 8.30484C21.1363 8.14975 20.9579 7.96515 20.805 7.91758C18.7924 7.29909 17.6503 5.7643 17.7452 3.65289C17.7737 3.01728 17.9304 2.36739 18.1459 1.76603C18.3224 1.2741 18.7022 0.88398 19.3705 0.894447C19.4322 1.46726 19.4854 2.03056 19.5566 2.591C19.605 2.9678 19.6572 3.3465 19.7465 3.71569C19.98 4.67386 20.9389 5.2324 21.9158 4.99643C22.887 4.76235 23.5211 3.80798 23.2401 2.86408C23.0199 2.1238 22.6696 1.42349 22.3753 0.706047C22.3041 0.53192 22.2224 0.361599 22.1294 0.153217C22.6449 -0.112256 23.1044 -0.00188009 23.542 0.24932C25.8955 1.60523 26.3626 5.00499 24.4487 6.90517C24.2521 7.10023 24.2047 7.25627 24.2759 7.5208C25.0468 10.3658 25.8006 13.2156 26.5771 16.0597C26.618 16.2091 26.8126 16.3861 26.9664 16.4232C28.9724 16.9084 30.2417 18.4014 30.3822 20.47C30.4429 21.3682 30.3907 22.2502 29.991 23.0743C29.7319 23.61 29.3607 24.0182 28.6401 24.0362C28.5926 23.569 28.5537 23.119 28.4986 22.6699C28.435 22.1503 28.3819 21.628 28.2784 21.117C28.0505 19.9856 26.9493 19.3072 25.8851 19.6164C24.7126 19.958 24.123 21.0513 24.5417 22.1817C24.8113 22.9087 25.1483 23.6109 25.455 24.3236C25.5224 24.4796 25.5889 24.6357 25.6686 24.8212Z" fill="#1E7BE2"/>
</svg>
