<svg width="414" height="896" viewBox="0 0 414 896" fill="none" xmlns="http://www.w3.org/2000/svg">
<g clip-path="url(#clip0_2_117)">
<rect width="414" height="896" fill="white"/>
<rect width="414" height="896" fill="url(#paint0_linear_2_117)"/>
<path d="M109.623 430.697C111.539 432.432 112.49 434.374 112.49 436.53C112.49 438.116 111.966 439.611 110.917 441.015C109.512 442.932 107.422 444.382 104.638 445.365C102.185 446.233 99.4661 446.667 96.4755 446.667H69.5277V426.529H97.4659C98.3009 426.529 99.0842 426.406 99.7962 426.166C100.78 425.81 101.279 425.286 101.279 424.6C101.279 423.913 100.787 423.402 99.7962 423.072C99.0777 422.832 98.3009 422.709 97.4659 422.709H69.5277L76.2986 414.333H96.482C99.4985 414.333 102.237 414.78 104.69 415.68C107.441 416.696 109.519 418.178 110.924 420.12C111.972 421.557 112.497 423.078 112.497 424.697C112.497 426.904 111.539 428.904 109.623 430.697ZM97.4659 434.918H79.5741V438.329H97.4659C98.5145 438.329 99.4985 438.226 100.424 438.012C101.796 437.714 102.489 437.248 102.489 436.62C102.489 435.992 101.803 435.526 100.424 435.228C99.5049 435.021 98.5145 434.918 97.4659 434.918Z" fill="white"/>
<path d="M211.025 431.998C211.025 441.805 204.299 446.712 190.841 446.712H188.731C175.273 446.712 168.548 441.812 168.548 431.998V414.378H178.549V432.005C178.549 434.937 179.837 436.821 182.407 437.656C183.779 438.135 186.595 438.374 190.835 438.374C194.214 438.374 196.622 438.018 198.059 437.3C200.001 436.374 200.972 434.607 200.972 432.005V414.378H211.018L211.025 431.998Z" fill="white"/>
<path d="M249.954 438.368L243.449 446.712H214.883V414.378H224.884V438.374H249.954V438.368Z" fill="white"/>
<path d="M298.885 430.251C298.885 434.976 297.04 438.899 293.344 442.025C289.654 445.152 284.994 446.712 279.375 446.712H269.646C263.995 446.712 259.321 445.152 255.631 442.025C251.935 438.899 250.09 434.976 250.09 430.251C250.09 425.525 251.922 421.7 255.586 418.767C259.25 415.835 263.936 414.372 269.646 414.372H279.375C285.084 414.372 289.764 415.835 293.415 418.767C297.06 421.7 298.885 425.525 298.885 430.251ZM279.375 422.761H269.646C266.869 422.761 264.577 423.499 262.784 424.981C260.991 426.464 260.091 428.354 260.091 430.658C260.091 432.963 260.991 434.821 262.784 436.245C264.577 437.662 266.869 438.374 269.646 438.374H279.375C282.158 438.374 284.443 437.662 286.236 436.245C288.029 434.827 288.929 432.963 288.929 430.658C288.929 428.354 288.023 426.464 286.217 424.981C284.404 423.506 282.126 422.761 279.375 422.761Z" fill="white"/>
<path d="M346.78 431.998C346.78 441.805 340.054 446.712 326.597 446.712H324.486C311.029 446.712 304.303 441.812 304.303 431.998V414.378H314.304V432.005C314.304 434.937 315.592 436.821 318.162 437.656C319.534 438.135 322.35 438.374 326.59 438.374C329.969 438.374 332.377 438.018 333.814 437.3C335.756 436.374 336.727 434.607 336.727 432.005V414.378H346.773V431.998H346.78Z" fill="white"/>
<path d="M98.89 462.655L94.1904 468.753H77.5544C76.6611 468.753 76.2144 469.07 76.2144 469.698C76.2144 470.332 76.6611 470.643 77.5544 470.643H89.5233C92.3715 470.643 94.7536 471.342 96.6697 472.734C98.6504 474.216 99.6408 476.126 99.6408 478.476C99.6408 480.806 98.6375 482.683 96.6373 484.12C94.7665 485.493 92.3974 486.172 89.5233 486.172H68L72.6995 480.107H89.5298C90.2936 480.107 90.9797 479.977 91.5817 479.719C92.365 479.395 92.7534 478.948 92.7534 478.379C92.7534 477.79 92.3585 477.343 91.5817 477.039C90.9927 476.825 90.313 476.715 89.5298 476.715H77.5544C74.9004 476.715 72.6866 476.107 70.9 474.89C68.9839 473.582 68.0324 471.854 68.0324 469.705C68.0324 467.53 68.9904 465.788 70.9 464.487C72.6801 463.27 74.9004 462.662 77.5544 462.662H98.89V462.655Z" fill="white"/>
<path d="M128.077 480.107L123.378 486.172H102.534V462.655H128.071L123.371 468.753H109.849V471.232H126.938L122.239 477.298H109.849V480.1L128.077 480.107Z" fill="white"/>
<path d="M165.719 486.172H155.116L148.002 480.269H137.956V486.172H130.66V474.171H150.947C152.19 474.171 153.206 473.99 154.015 473.614C155.038 473.135 155.55 472.43 155.55 471.498C155.55 469.672 154.015 468.759 150.947 468.759H130.66L135.425 462.662H150.267C153.944 462.662 156.922 463.361 159.207 464.753C161.77 466.339 163.058 468.604 163.058 471.536C163.058 473.187 162.541 474.682 161.511 476.022C160.482 477.362 159.052 478.385 157.22 479.104L165.719 486.172Z" fill="white"/>
<path d="M201.865 462.655L186.012 483.887C184.705 485.648 183.378 486.528 182.031 486.528C180.685 486.528 179.358 485.635 178.05 483.855L162.586 462.655H171.655L182.154 477.2L192.725 462.655H201.865Z" fill="white"/>
<path d="M212.818 486.172H205.542V462.655H212.818V486.172Z" fill="white"/>
<path d="M247.002 480.107L242.303 486.172H230.496C226.405 486.172 223.019 485.033 220.333 482.761C217.647 480.489 216.307 477.634 216.307 474.197C216.307 470.76 217.634 467.976 220.288 465.847C222.942 463.717 226.34 462.649 230.496 462.649H247.002L242.303 468.747H230.496C228.496 468.747 226.845 469.284 225.537 470.358C224.23 471.433 223.583 472.812 223.583 474.482C223.583 476.132 224.236 477.485 225.537 478.527C226.845 479.57 228.496 480.094 230.496 480.094H247.002V480.107Z" fill="white"/>
<path d="M275.51 480.107L270.811 486.172H249.967V462.655H275.504L270.804 468.753H257.275V471.232H274.364L269.665 477.298H257.275V480.1L275.51 480.107Z" fill="white"/>
<path d="M282.21 484.625C282.21 485.111 282.022 485.499 281.647 485.81C281.271 486.114 280.786 486.269 280.197 486.269C279.608 486.269 279.122 486.114 278.747 485.81C278.371 485.506 278.184 485.111 278.184 484.625C278.184 484.127 278.371 483.732 278.747 483.421C279.122 483.117 279.608 482.962 280.197 482.962C280.786 482.962 281.265 483.117 281.647 483.421C282.022 483.732 282.21 484.133 282.21 484.625Z" fill="white"/>
<path d="M300.652 482.949L298.108 486.237H291.713C289.499 486.237 287.66 485.622 286.21 484.392C284.754 483.162 284.029 481.615 284.029 479.751C284.029 477.893 284.748 476.385 286.185 475.226C287.622 474.074 289.466 473.491 291.713 473.491H300.652L298.108 476.793H291.713C290.632 476.793 289.732 477.084 289.026 477.667C288.321 478.249 287.965 478.994 287.965 479.9C287.965 480.793 288.321 481.525 289.026 482.088C289.732 482.651 290.625 482.936 291.713 482.936H300.652V482.949Z" fill="white"/>
<path d="M321.748 479.751C321.748 481.609 321.023 483.156 319.567 484.392C318.11 485.622 316.278 486.237 314.065 486.237H310.232C308.006 486.237 306.167 485.622 304.711 484.392C303.254 483.162 302.529 481.615 302.529 479.751C302.529 477.893 303.248 476.385 304.691 475.226C306.135 474.074 307.98 473.491 310.232 473.491H314.065C316.311 473.491 318.156 474.067 319.593 475.226C321.03 476.378 321.748 477.887 321.748 479.751ZM314.065 476.799H310.232C309.139 476.799 308.239 477.09 307.527 477.673C306.821 478.256 306.465 479 306.465 479.906C306.465 480.813 306.815 481.544 307.527 482.107C308.239 482.67 309.132 482.949 310.232 482.949H314.065C315.159 482.949 316.058 482.67 316.77 482.107C317.476 481.55 317.832 480.813 317.832 479.906C317.832 479 317.476 478.256 316.764 477.673C316.045 477.09 315.146 476.799 314.065 476.799Z" fill="white"/>
<path d="M346.806 486.269H342.475L340.799 479.537L337.232 485.279C336.759 486.023 336.112 486.392 335.29 486.392C334.863 486.392 334.455 486.289 334.054 486.075C333.652 485.862 333.354 485.596 333.154 485.279L329.568 479.537L327.904 486.269H323.561L326.862 474.961C326.991 474.501 327.263 474.119 327.684 473.802C328.105 473.491 328.584 473.336 329.121 473.336C329.956 473.336 330.681 473.828 331.296 474.818L335.18 481.162L339.083 474.818C339.685 473.828 340.404 473.336 341.239 473.336C341.795 473.336 342.274 473.491 342.689 473.802C343.103 474.113 343.375 474.501 343.517 474.961L346.806 486.269Z" fill="white"/>
<path d="M151.963 412.657C151.711 413.097 151.536 413.446 151.323 413.77C150.785 414.605 150.203 415.414 149.685 416.262C148.999 417.375 149.089 418.411 150.132 419.233C150.889 419.829 151.802 420.334 152.727 420.657C153.905 421.072 154.818 420.664 155.504 419.667C156.093 418.813 156.65 417.945 157.233 417.084C157.42 416.812 157.64 416.566 157.945 416.178C158.242 416.528 158.547 416.786 158.721 417.104C159.349 418.269 159.518 419.505 159.252 420.787C158.786 423.078 157.615 424.936 155.414 426.114C153.847 426.956 152.184 426.982 150.533 426.354C149.95 426.134 149.562 426.231 149.154 426.632C147.581 428.166 146.015 429.707 144.416 431.215C141.114 434.322 137.8 437.423 134.454 440.491C133.923 440.977 133.722 441.449 133.748 442.142C133.877 445.184 131.916 447.728 128.861 448.576C126.207 449.314 123.287 448.421 121.598 446.356C119.876 444.252 119.688 441.365 121.132 439.132C122.569 436.905 125.372 435.682 128.077 436.141C128.576 436.225 128.9 436.089 129.223 435.772C130.77 434.27 132.317 432.762 133.89 431.28C137.198 428.147 140.506 425.014 143.84 421.907C144.358 421.428 144.468 421.033 144.222 420.366C143.147 417.486 144.629 414.139 147.549 412.825C148.928 412.197 150.371 412.132 151.963 412.657ZM126.11 438.536C125.883 438.659 125.553 438.769 125.32 438.976C124.582 439.63 123.857 440.303 123.184 441.015C122.996 441.21 122.867 441.585 122.925 441.831C123.158 442.841 123.443 443.844 123.773 444.828C123.857 445.074 124.135 445.365 124.388 445.45C125.352 445.747 126.336 445.967 127.32 446.213C127.922 446.369 128.414 446.207 128.848 445.786C129.476 445.171 130.149 444.595 130.738 443.948C130.945 443.721 131.088 443.307 131.029 443.022C130.803 441.993 130.486 440.977 130.168 439.967C130.11 439.779 129.916 439.533 129.735 439.481C128.576 439.145 127.404 438.86 126.11 438.536Z" fill="white"/>
<path d="M133.463 446.854C134.667 445.294 135.133 443.631 135.03 441.721C139.781 443.262 144.163 442.718 147.976 439.682C151.808 436.633 153.064 432.646 152.196 427.966C154.203 427.83 156.074 427.467 157.369 426.315C158.152 426.425 158.734 426.541 159.33 426.587C159.997 426.639 160.67 426.587 161.337 426.639C162.12 426.697 162.566 427.001 162.586 427.72C162.651 429.623 162.638 431.532 162.599 433.442C162.586 434.05 162.126 434.458 161.46 434.503C160.644 434.562 159.822 434.568 159 434.575C158.074 434.581 157.815 434.73 157.472 435.513C156.961 436.678 156.456 437.844 155.919 438.996C155.66 439.553 155.731 440.012 156.197 440.433C156.76 440.944 157.323 441.449 157.848 441.986C158.521 442.679 158.611 443.197 157.958 443.877C156.715 445.171 155.414 446.434 154.054 447.618C153.258 448.317 152.546 448.201 151.769 447.482C151.258 447.01 150.746 446.544 150.255 446.052C149.788 445.579 149.29 445.54 148.675 445.793C147.413 446.317 146.131 446.815 144.849 447.294C144.293 447.502 144.014 447.819 144.014 448.388C144.008 449.223 143.995 450.058 143.924 450.887C143.853 451.696 143.529 452.072 142.668 452.098C140.726 452.149 138.778 452.136 136.836 452.065C135.975 452.033 135.619 451.612 135.56 450.79C135.509 450.123 135.528 449.45 135.528 448.777C135.535 447.722 135.392 447.527 134.331 447.184C134.078 447.094 133.826 446.99 133.463 446.854Z" fill="white"/>
<path d="M142.61 418.916C137.671 418.036 133.463 419.214 130.181 422.742C126.893 426.27 126.375 430.361 127.87 434.866C125.864 434.788 124.038 435.157 122.407 436.174C122.336 436.096 122.271 436.064 122.252 436.012C121.65 434.51 121.65 434.516 119.967 434.549C119.365 434.562 118.756 434.549 118.154 434.491C117.364 434.419 116.95 434.115 116.924 433.39C116.866 431.545 116.853 429.694 116.931 427.849C116.97 426.956 117.5 426.6 118.51 426.567C119.268 426.541 120.025 426.561 120.782 426.574C121.462 426.587 121.844 426.276 122.083 425.681C122.511 424.619 122.97 423.564 123.449 422.522C123.935 421.473 123.909 421.208 123.067 420.411C122.672 420.036 122.232 419.699 121.824 419.337C121.074 418.664 120.964 418.152 121.559 417.35C122.051 416.689 122.647 416.087 123.249 415.505C123.961 414.825 124.712 414.171 125.495 413.563C126.284 412.948 127.009 412.98 127.767 413.628C128.226 414.022 128.628 414.488 129.055 414.916C129.741 415.608 130.168 415.654 131.068 415.272C132.207 414.786 133.36 414.314 134.538 413.912C135.302 413.653 135.593 413.187 135.586 412.488C135.58 411.88 135.528 411.265 135.541 410.656C135.561 409.569 135.897 409.09 137.036 409.045C138.952 408.96 140.881 409.012 142.798 409.064C143.477 409.083 143.904 409.511 143.943 410.177C143.982 410.844 143.963 411.517 144.014 412.19C144.047 412.605 144.17 413.019 144.235 413.433C144.26 413.595 144.306 413.815 144.222 413.932C143.134 415.408 142.558 417.013 142.61 418.916Z" fill="white"/>
<circle cx="367.589" cy="13.1415" r="94.1415" fill="white" fill-opacity="0.12"/>
<circle cx="430.719" cy="93.9925" r="85.2811" fill="white" fill-opacity="0.12"/>
<circle cx="77.4113" cy="910.255" r="94.1415" transform="rotate(-180 77.4113 910.255)" fill="white" fill-opacity="0.12"/>
<circle cx="14.2811" cy="829.404" r="85.2811" transform="rotate(-180 14.2811 829.404)" fill="white" fill-opacity="0.12"/>
</g>
<defs>
<linearGradient id="paint0_linear_2_117" x1="207" y1="0" x2="207" y2="896" gradientUnits="userSpaceOnUse">
<stop stop-color="#1E7BE2"/>
<stop offset="1" stop-color="#094B94"/>
</linearGradient>
<clipPath id="clip0_2_117">
<rect width="414" height="896" fill="white"/>
</clipPath>
</defs>
</svg>
