<svg width="31" height="25" viewBox="0 0 31 25" fill="none" xmlns="http://www.w3.org/2000/svg">
<path d="M17.0772 18.8714C17.0897 18.8998 17.1147 18.9316 17.1159 18.9635C17.1841 20.2563 17.1795 20.3131 15.9697 20.7782C12.4574 22.129 9.19073 21.6708 6.40044 19.1238C3.60675 16.5746 2.77671 13.3261 3.92171 9.7478C5.07921 6.13089 7.71485 4.08309 11.4728 3.57484C13.2772 3.33037 15.0112 3.70218 16.6451 4.53677C17.0203 4.72893 17.1977 4.95861 17.1227 5.37135C17.1193 5.38954 17.1193 5.41001 17.1227 5.4282C17.3831 7.2702 16.9157 8.85068 15.6263 10.247C14.8657 11.0702 15.242 12.1697 16.3268 12.4699C16.9828 12.6518 17.2114 12.9451 17.1352 13.6058C17.0749 14.1277 17.1227 14.6621 17.1227 15.2931C16.5894 15.1203 16.1141 14.9634 15.6366 14.8133C14.5132 14.4597 13.6968 15.0191 13.6672 16.1868C13.6445 17.076 13.6479 17.9674 13.6661 18.8566C13.6854 19.7855 14.2301 20.163 15.1033 19.8162C15.7662 19.5536 16.3961 19.2022 17.0772 18.8714ZM4.65168 12.3744C4.63463 13.1782 5.1679 13.5887 6.03659 13.3147C6.88482 13.0463 7.73191 12.7757 8.57445 12.4915C9.62507 12.1367 9.95368 11.1873 9.32717 10.2879C8.80868 9.542 8.27086 8.80861 7.72622 8.08091C7.18954 7.36457 6.52893 7.37481 6.02295 8.10933C5.16449 9.35666 4.72104 10.7461 4.65168 12.3744ZM11.2374 17.4774C11.2363 17.4774 11.2362 17.4774 11.2351 17.4774C11.2351 16.985 11.2567 16.4916 11.2306 16.0015C11.1817 15.1066 10.3835 14.5063 9.52615 14.7508C8.56308 15.0248 7.61025 15.3409 6.66423 15.6718C5.97746 15.9117 5.77166 16.5404 6.19236 17.1226C7.15202 18.4507 8.4255 19.3751 9.97755 19.8913C10.6802 20.1255 11.2135 19.7094 11.2351 18.9544C11.2488 18.4609 11.2374 17.9686 11.2374 17.4774ZM12.4779 4.64024C12.4722 4.66071 12.4677 4.68117 12.462 4.7005C12.0663 4.73234 11.6672 4.74257 11.276 4.80283C10.9031 4.85969 10.5313 4.94496 10.172 5.05867C9.41586 5.29858 9.193 5.92281 9.64213 6.56751C10.1936 7.35889 10.7598 8.14117 11.3477 8.90526C11.9571 9.69777 12.96 9.69095 13.5717 8.89161C14.1459 8.14003 14.6962 7.37026 15.2375 6.5948C15.7002 5.93305 15.4842 5.26447 14.6974 5.05753C13.972 4.86651 13.2192 4.77555 12.4779 4.64024Z" fill="#666666"/>
<path d="M17.1432 21.0351C17.1432 22.0983 17.1432 23.0409 17.1432 23.9971C13.0953 25.8516 6.88371 25.2251 2.91205 20.5155C-0.867461 16.0345 -0.981164 9.42147 2.64825 4.81989C6.48688 -0.045485 12.7645 -0.938058 17.1295 1.00059C17.1295 1.9682 17.1295 2.92331 17.1295 3.96484C14.5121 2.65043 11.881 2.41279 9.18962 3.35539C7.218 4.04557 5.63638 5.27811 4.44932 6.99959C2.09111 10.4198 2.16274 14.9634 4.63807 18.2778C6.07528 20.2028 7.9673 21.4559 10.3187 21.9812C12.661 22.5053 14.9032 22.1733 17.1432 21.0351Z" fill="#666666"/>
<path d="M26.0011 24.9352C24.9903 24.9352 24.0306 24.9352 23.0403 24.9352C23.0403 16.6519 23.0403 8.40042 23.0403 0.0966492C24.0136 0.0966492 24.9835 0.0966492 26.0011 0.0966492C26.0011 8.35608 26.0011 16.6212 26.0011 24.9352Z" fill="#1E7BE2"/>
<path d="M22.3173 15.6263C21.1825 14.9418 20.0273 15.0305 18.772 15.2886C18.772 14.4529 18.7663 13.6524 18.7822 12.8542C18.7834 12.7814 18.913 12.6688 19.0017 12.645C19.8158 12.4267 20.6356 12.33 21.4508 12.6325C22.0921 12.8701 22.3389 13.2305 22.348 13.9162C22.3548 14.4074 22.3491 14.8986 22.3468 15.3886C22.3468 15.4444 22.3343 15.5001 22.3173 15.6263Z" fill="#1E7BE2"/>
<path d="M22.3501 22.162C21.0937 21.6219 21.0937 21.6219 18.7685 21.8072C18.7685 21.0181 18.7605 20.2336 18.7798 19.449C18.7821 19.3637 18.9288 19.2364 19.0311 19.2079C19.8464 18.9794 20.6685 18.8941 21.4837 19.2125C22.0522 19.4342 22.3729 19.8242 22.3535 20.4655C22.3376 21.0124 22.3501 21.5605 22.3501 22.162Z" fill="#1E7BE2"/>
<path d="M18.7617 18.5814C18.7617 17.7344 18.7515 16.9794 18.7731 16.2255C18.7765 16.122 18.9152 15.9606 19.0221 15.9299C19.8351 15.6956 20.6583 15.6149 21.4735 15.9242C22.0421 16.1391 22.3672 16.5325 22.3525 17.1715C22.34 17.7196 22.3502 18.2676 22.3502 18.9101C21.2097 18.2483 20.042 18.2938 18.7617 18.5814Z" fill="#1E7BE2"/>
<path d="M30.2797 21.8504C29.0313 21.6014 27.8567 21.5002 26.6912 22.2074C26.6912 21.4957 26.6594 20.8612 26.7003 20.2324C26.7401 19.6218 27.179 19.2273 27.7214 19.1693C28.4753 19.0886 29.2484 19.1716 30.0114 19.2136C30.1058 19.2193 30.265 19.3956 30.2684 19.4967C30.2888 20.2654 30.2797 21.0352 30.2797 21.8504Z" fill="#1E7BE2"/>
<path d="M26.6846 18.9476C26.6846 18.2994 26.6789 17.7707 26.6857 17.242C26.6948 16.5063 26.962 16.122 27.6613 15.8946C27.9456 15.8025 28.2503 15.7479 28.5493 15.732C30.0912 15.6479 30.2833 15.8332 30.2833 17.3443C30.2833 17.7207 30.2833 18.0959 30.2833 18.5439C29.0496 18.3608 27.8501 18.1823 26.6846 18.9476Z" fill="#1E7BE2"/>
<path d="M30.2775 12.0139C29.037 11.7479 27.8613 11.6467 26.6959 12.3641C26.6959 11.6387 26.6618 10.986 26.7061 10.3379C26.7425 9.80693 27.1257 9.41693 27.6055 9.36463C28.398 9.27821 29.2076 9.33506 30.0081 9.36122C30.1002 9.36463 30.2616 9.54769 30.265 9.6523C30.2878 10.4221 30.2775 11.1941 30.2775 12.0139Z" fill="#1E7BE2"/>
<path d="M18.7616 8.7438C18.7616 7.89444 18.7457 7.17697 18.7752 6.46291C18.7809 6.32419 18.9526 6.08087 19.0572 6.07518C19.8384 6.0388 20.6343 5.96034 21.4007 6.07291C22.0749 6.17183 22.341 6.65621 22.349 7.35548C22.3558 7.90126 22.3501 8.44817 22.3501 9.06786C21.1994 8.38905 20.0158 8.42998 18.7616 8.7438Z" fill="#1E7BE2"/>
<path d="M26.6846 15.6593C26.6846 14.9873 26.6846 14.421 26.6846 13.8536C26.6846 13.2465 27.0041 12.8587 27.5476 12.6484C28.3606 12.3346 29.1849 12.4142 29.999 12.6393C30.115 12.6711 30.2639 12.8599 30.2674 12.9793C30.2924 13.732 30.2799 14.4847 30.2799 15.2818C29.0405 15.043 27.8625 14.9202 26.6846 15.6593Z" fill="#1E7BE2"/>
<path d="M22.3205 5.75226C21.0664 5.17124 20.6264 5.1303 18.773 5.42593C18.773 4.61523 18.765 3.81475 18.7855 3.01428C18.7878 2.93241 18.9572 2.78915 19.0516 2.78687C19.8339 2.76413 20.6309 2.67658 21.3973 2.78915C22.0738 2.88921 22.3387 3.37358 22.349 4.074C22.3558 4.5652 22.3501 5.0564 22.3478 5.5476C22.3478 5.60331 22.3331 5.65903 22.3205 5.75226Z" fill="#1E7BE2"/>
<path d="M30.2787 5.45095C29.037 5.16555 27.8625 5.08823 26.6959 5.80002C26.6959 5.07914 26.6606 4.42648 26.7072 3.77951C26.7448 3.25192 27.1223 2.85396 27.6055 2.80052C28.398 2.71297 29.2087 2.76982 30.0104 2.79483C30.1025 2.79711 30.2651 2.98017 30.2673 3.0825C30.2889 3.85569 30.2787 4.62887 30.2787 5.45095Z" fill="#1E7BE2"/>
<path d="M30.2786 8.73698C29.0211 8.44931 27.8659 8.3754 26.7459 9.05421C26.7459 8.30149 26.6788 7.57266 26.7789 6.86883C26.8187 6.59026 27.1882 6.27643 27.4838 6.13317C28.3093 5.73293 29.1837 5.86142 30.0376 6.08314C30.1388 6.10929 30.2661 6.28894 30.2684 6.40037C30.2889 7.15536 30.2786 7.91035 30.2786 8.73698Z" fill="#1E7BE2"/>
<path d="M22.282 12.3164C21.1927 11.6626 20.0238 11.7331 18.7663 12.0151C18.7663 11.1771 18.7583 10.3914 18.7776 9.60681C18.7799 9.51926 18.9346 9.36349 19.0221 9.36008C19.8214 9.3362 20.6367 9.24637 21.419 9.36235C22.0853 9.46127 22.3445 9.95702 22.3513 10.6574C22.3559 11.1668 22.3491 11.6762 22.3434 12.1856C22.3422 12.2186 22.3138 12.2493 22.282 12.3164Z" fill="#1E7BE2"/>
<path d="M26.7004 25C26.7004 24.4144 26.6026 23.9005 26.7322 23.4502C26.8323 23.1 27.1552 22.7146 27.4827 22.5474C28.2957 22.1324 29.1757 22.2484 30.0274 22.4974C30.132 22.5281 30.2525 22.6861 30.2707 22.801C30.431 23.8357 29.8977 24.676 28.8733 24.8602C28.1774 24.9864 27.4554 24.9579 26.7004 25Z" fill="#1E7BE2"/>
<path d="M22.3513 24.9932C21.6065 24.9579 20.922 24.9886 20.2614 24.8795C19.1835 24.7021 18.6412 23.9198 18.7742 22.8408C18.7901 22.7111 18.9356 22.4997 19.0334 22.494C19.777 22.4439 20.5377 22.3348 21.2654 22.4405C22.0693 22.5576 22.3445 23.0307 22.3513 23.8516C22.3536 24.1904 22.3513 24.5293 22.3513 24.9932Z" fill="#1E7BE2"/>
<path d="M26.7017 2.5299C26.7017 1.66576 26.7017 0.898258 26.7017 0C27.4851 0.0591258 28.2651 0.031837 29.0042 0.19557C29.9649 0.409333 30.3675 1.1359 30.2219 2.15013C29.0451 1.91136 27.8694 1.78515 26.7017 2.5299Z" fill="#1E7BE2"/>
<path d="M18.83 2.15582C18.5559 0.54009 19.9295 -0.258109 22.3161 0.109153C22.3161 0.870967 22.3161 1.63847 22.3161 2.48215C21.1995 1.82608 20.0193 1.87383 18.83 2.15582Z" fill="#1E7BE2"/>
</svg>
